<?xml version="1.0" encoding="utf-8"?>
<!-- Generator: Adobe Illustrator 25.2.3, SVG Export Plug-In . SVG Version: 6.00 Build 0)  -->
<svg version="1.1" id="Layer_1" xmlns="http://www.w3.org/2000/svg" xmlns:xlink="http://www.w3.org/1999/xlink" x="0px" y="0px"
	 viewBox="0 0 4416 1050.2" style="enable-background:new 0 0 4416 1050.2;" xml:space="preserve">
<style type="text/css">
	.st0{fill:#262626;}
	.st1{fill:#FFFFFF;}
</style>
<g>
	<path class="st0" d="M502.1,1037.2l8.6-97.8l56.6-35.1l4-67.1l82.9,26.1l113.1,5.1l101.3-1.9l41.7,39.7l-5.3,7.4l2.2,3.9l38,5.4
		l1.4,16.8h-71.6v4.4h72.4l7.9,96.8l-354.9,17.3L502.1,1037.2z M542.4,1016.5c0.6,0,1.3,0.1,2.1,0.1c4,0,0.1,2.7,3.5,2.2l9-53.9
		l4.3-0.1c0.2,0,20-0.2,48.2-0.2c62,0,134.9,1,178.3,4.9c-15.9-4.2-39.5-7.8-73.5-7.8H557V940l20.4-8.8h-25.5L542.4,1016.5z
		 M611.7,917.3c1.6,0.3,155,24.6,191.8,26.8c-1.4-1.4-3.4-3.3-6.3-5.8l-8.3-7.1l10.9-0.7c11.8-0.7,45.8-1.4,57.6-4
		c-28-0.9-82.2,4.5-133.8,0c-74.3-6.5-117-15.4-117.2-15.4l-13.1,0l2.2-1.6l-1.2-6.3c-0.5-2.4-1.7-8.8-2.8-16
		c-4.1,16.6-5,20.2-5.4,21.3c-0.6,1.4-4.1,12.3-6.4,19.6l-0.8,2.6l31.8-13.7L611.7,917.3z M860.9,887l35.2,29.2l4.1-2.8l-8.9-6.2
		l-28.9-23.3l-26,1.2L860.9,887z"/>
</g>
<g>
	<rect x="281.1" y="881.1" class="st1" width="33.8" height="31.9"/>
</g>
<g>
	<rect x="281.1" y="881.1" class="st1" width="33.8" height="31.9"/>
</g>
<g>
	<path class="st0" d="M199.4,795.2c11,3.1,16.2,13.8,16.2,13.8l-1,28.6c0,0-12.1-10.7-22.4-13.6c-10.3-2.9-15.2-5.1-15.2-5.1
		l1.3-33.3C178.4,785.6,188.4,792,199.4,795.2z"/>
</g>
<g>
	<rect x="229.1" y="868.8" class="st0" width="93.6" height="88.4"/>
</g>
<g>
	<rect x="236.9" y="881.1" class="st1" width="33.8" height="31.9"/>
</g>
<g>
	<rect x="281.1" y="881.1" class="st1" width="33.8" height="31.9"/>
</g>
<g>
	<rect x="218.7" y="863.6" class="st0" width="109.2" height="7.8"/>
</g>
<g>
	<polyline class="st0" points="229.1,868.8 275.9,827.2 322.7,866 	"/>
</g>
<g>
	<path class="st0" d="M228.2,868.8v88.4h93.6v-88.4H228.2z M270.7,913h-33.8v-31.9h33.8V913z M314.9,913h-33.8v-31.9h33.8V913z"/>
</g>
<g>
	<rect x="220.4" y="863.6" class="st0" width="109.2" height="7.8"/>
</g>
<g>
	<polygon class="st0" points="228.2,868.8 275,827.2 321.8,866 	"/>
</g>
<g>
	<path class="st0" d="M4247.3,1029.2l15.1-1.2c0,0,2.3-161.8,52.1-222.2c0.2,0.4,0.5,0.8,0.7,1.1c14,21.4-1.7,77.4-1.7,77.4
		s-18.7,30.2,13.8-16.4c23-32.9,20.8-57.2,15.1-71.6c17.5,7.4,33.9,27.5,33.9,27.5c8-31.9-16.7-44.2-34.3-48.9
		c0.3-35.9-37.4-52.7-37.4-52.7c6.4,5.2,8,26.1,8.2,44.1c-9.4-13-29.2-25.9-70.4-16.1c0,0,35.5,17.2,62.9,44.4
		c1.3,1.3,2.6,2.5,3.7,3.6c-11.9,14.6-52.4,72.8-65,200.1c0,0-4.1-75.3-24.4-110.8c1.5-1.1,2.8-2,3.8-2.6
		c21.3-9.3,38.5-4.1,40.3-2.3c-14-20.4-33.2-16.8-44.3-12.2c5.6-13.8,19.6-21.9,19.6-21.9s0,0-8.8,0.9c-17.2-1.7-22.6,9.3-24.1,18.8
		c-10.8-2.2-27.3-2.2-33.4,14.7c0,0,16.5-6.5,30.1-3c-36.2,10.7-14.9,42.6-14.9,42.6c0-11.8,19.1-26,29.9-33.6
		c4.9,14.2,10.3,43.1,8.8,100.7c-0.4,17.3-1.9,34.3-2.4,39.8h-85.4V718.8l-42.8-30.7V584.9l-98.8,70V455.5h-25.7v-69l-138.6,59.2
		v9.8h-19v302.9l-80.1,0.6V430.2H3650V344h-46.3V192.1h-69.6V344v286.9h-74.9V515.7V298H3406v-47.3h-118.7V298h-140.2l-31.7,42.7
		v175h-213.4V453v-6.6v-10.6v-9.2v-19.8h-42.2l-18,19.8h-98.1l-11.9,19.8h-38.8v-61.9h-96.2v-104h-140.4v104h-96.2v494.1l-66.4-28.7
		V716l-56.8-17.7v-40.6V413.5l-54.6,6.7v-17.1h-52v23.4l-106.2,13v-77.9h-213.2v515.6h-193.7V509.5v-0.2v-32.6v-5.6v-13.6
		c0-10.6-8.6-19.2-19.2-19.2c-9,0-16.5,6.2-18.6,14.5v-56.9h-30.4v-23.4v-6.8V301v-5.2V263v-5.2v-4.4c0-13.1-8.3-24.3-20-28.6v-14.2
		c3.9-3.1,6.4-7.8,6.4-13.2c0-8.7-6.7-15.9-15.2-16.7v-50.9h-3.2v50.9c-8.5,0.8-15.2,8-15.2,16.7c0,5.3,2.5,10.1,6.4,13.2v14.2
		c-11.7,4.2-20,15.4-20,28.6v4.4v5.2v32.8v5.2v64.8v6.8v23.4h-30.4v61.5c0-10.6-8.6-19.1-19.2-19.1h0c-10.6,0-19.2,8.6-19.2,19.2
		v13.6v5.6v32.6v0.2v367.6h-189.3v-565l-108.3-112.8v-33.4h-41.6v42.3l-99.7,103.8v717.1H444.2c0.5-19.3,5.7-170.2,55.2-223.8
		c0.2,12.6,0,48.4-9.4,57c0,0,25.9-23.5,29.7-48.2c14.3,21.2,21.2,58.6,21.2,58.6s-3.4,35.3,5.2-20.8c5.9-38.5-5.8-59.3-17.1-70
		c19.3,3.5,40.5,23.2,40.5,23.2c3.8-35.8-27.9-42.9-45.7-44.1c-8.9-29.4-42.7-39.1-42.7-39.1c7.8,4.7,12.6,29.4,15.1,48.2
		c-9.8-12.9-31.4-27.7-75.6-10.4c0,0,37.5,12.1,68.5,35.2c1.6,1.2,3.1,2.2,4.5,3.2c-5.7,6.2-53.8,62.5-67.8,203.3
		c0,0-4.2-118.1-25.4-161.1c1.9-1.3,3.5-2.4,4.7-3.3c29.2-12.7,52.8-5.6,55.3-3.1c-19.3-28-45.6-23-60.7-16.8
		c7.7-19,26.9-30,26.9-30s0,0-12.1,1.3c-23.5-2.3-31,12.7-33.1,25.7c-14.9-3-37.4-3.1-45.8,20.2c0,0,22.7-9,41.3-4.2
		c-49.6,14.7-20.5,58.4-20.5,58.4c0-15.6,24.6-34.5,39.6-45.2c5.3,24.1,14.2,76.6,12.4,149.2c-0.4,14.6-1.5,29.1-2.1,36.5h-69.7
		V914.1h-3v7.8H178.6V819.5c2.1,0.8,6.6,2.5,13.7,4.5c10.3,2.9,22.4,13.6,22.4,13.6l1-28.6c0,0-5.2-10.7-16.2-13.8
		c-10.1-2.9-19.4-8.5-20.8-9.4v-7.9h-3v144.7l-82.8,50.7v-13.5h-3v56.3v13.2H0v32.6h4422.4v-32.6H4247.3z M175.6,1029.2H92.8v-10.8
		l82.8-50.7V1029.2z M175.6,964.1l-82.8,50.7v-17.3l82.8-50.7V964.1z M175.6,943.3l-82.8,50.7v-17.3l82.8-50.7V943.3z M240.6,1029.2
		h-62v-62.7h62V1029.2z M274.4,1029.2h-30.8v-62.7h30.8V1029.2z M308.2,1029.2h-30.8v-62.7h30.8V1029.2z M333.4,1029.2h-22.3v-62.7
		h22.3V1029.2z M333.4,963.5h-22.3v-8.9h-3v8.9h-30.8v-8.9h-3v8.9h-30.8v-8.9h-3v8.9h-62v-17.8h154.8V963.5z M333.4,942.7H178.6
		v-17.8h154.8V942.7z"/>
	<polygon class="st0" points="1994.4,345.4 1952.8,345.4 1952.8,330.6 1885.2,330.6 1885.2,345.4 1833.2,345.4 1833.2,361 
		1994.4,361 	"/>
</g>
</svg>
